<svg width="31" height="31" viewBox="0 0 31 31" fill="none" xmlns="http://www.w3.org/2000/svg">
<g clip-path="url(#clip0_830_59)">
<rect width="31" height="31" fill="white"/>
<rect x="2.5" y="2.5" width="26" height="26" stroke="black"/>
<path d="M4.24805 8.76855H10.457C9.08919 9.2627 8.40527 9.71387 8.40527 10.1221C8.40527 10.1722 8.41243 10.2188 8.42676 10.2617L8.45898 10.3584L12.6807 20.8105L14.5283 16.1055L11.7461 8.76855H13.916L15.6025 13.334L17.375 8.76855H18.6318L16.2363 14.8594L18.5996 20.9717L22.6172 10.3584L22.6387 10.2725C22.653 10.2295 22.6602 10.1865 22.6602 10.1436V10.1328C22.6602 9.72461 21.9798 9.26986 20.6191 8.76855H25.915C25.0342 8.94043 24.3646 9.44173 23.9062 10.2725L23.874 10.3584L18.127 25.4297L15.1621 17.5986L12.1436 25.4297L6.28906 10.3584L6.27832 10.3262L6.24609 10.2295C5.78776 9.42741 5.12174 8.94043 4.24805 8.76855Z" fill="black"/>
</g>
<defs>
<clipPath id="clip0_830_59">
<rect width="31" height="31" fill="white"/>
</clipPath>
</defs>
</svg>
