<svg width="159" height="43" viewBox="0 0 159 43" fill="none" xmlns="http://www.w3.org/2000/svg">
  <g clip-path="url(#clip0_829_51)">
    <path
      d="M14.1113 9.81738H21.4492C19.8327 10.4014 19.0244 10.9346 19.0244 11.417C19.0244 11.4762 19.0329 11.5312 19.0498 11.582L19.0879 11.6963L24.0771 24.0488L26.2607 18.4883L22.9727 9.81738H25.5371L27.5303 15.2129L29.625 9.81738H31.1104L28.2793 17.0156L31.0723 24.2393L35.8203 11.6963L35.8457 11.5947C35.8626 11.5439 35.8711 11.4932 35.8711 11.4424V11.4297C35.8711 10.9473 35.0671 10.4098 33.459 9.81738H39.7178C38.6768 10.0205 37.8854 10.613 37.3438 11.5947L37.3057 11.6963L30.5137 29.5078L27.0098 20.2529L23.4424 29.5078L16.5234 11.6963L16.5107 11.6582L16.4727 11.5439C15.931 10.596 15.1439 10.0205 14.1113 9.81738ZM43.0059 22.1191C43.0059 24.0065 43.2174 25.4115 43.6406 26.334C44.1823 27.5104 44.9652 28.0986 45.9893 28.0986C46.9033 28.0986 47.627 27.4342 48.1602 26.1055C48.6003 25.0052 48.8288 23.7103 48.8457 22.2207V22.1699C48.8457 20.4095 48.5072 18.9876 47.8301 17.9043C47.2715 17.0072 46.6156 16.5586 45.8623 16.5586C45.8538 16.5586 45.8411 16.5586 45.8242 16.5586C45.0202 16.5586 44.3516 17.0156 43.8184 17.9297C43.2767 18.8522 43.0059 20.2487 43.0059 22.1191ZM40.2383 22.3223C40.2383 20.9258 40.4922 19.6774 41 18.5771C41.5163 17.46 42.1976 16.5882 43.0439 15.9619C43.8988 15.3271 44.8424 15.0098 45.875 15.0098C46.8991 15.0098 47.8428 15.3271 48.7061 15.9619C49.5609 16.5882 50.2422 17.46 50.75 18.5771C51.2578 19.6943 51.5117 20.8919 51.5117 22.1699C51.5117 23.4564 51.2578 24.6497 50.75 25.75C50.2422 26.8503 49.5609 27.722 48.7061 28.3652C47.8597 29 46.916 29.3174 45.875 29.3174C44.8848 29.3174 43.9411 29 43.0439 28.3652C42.1807 27.7559 41.4951 26.9053 40.9873 25.8135C40.488 24.7386 40.2383 23.5749 40.2383 22.3223ZM53.416 29C54.4655 28.7969 55.2611 28.2044 55.8027 27.2227L55.8281 27.1211V18.2471C55.8281 18.0439 55.7731 17.8958 55.6631 17.8027C55.5107 17.6673 55.2526 17.5615 54.8887 17.4854C54.127 17.3161 53.6361 17.223 53.416 17.2061C54 16.9437 55.2949 16.4613 57.3008 15.7588C58.7227 15.2594 59.9499 15.0098 60.9824 15.0098C61.0163 15.0098 61.0501 15.0098 61.084 15.0098C62.4551 15.0098 63.6484 15.4837 64.6641 16.4316C65.5104 17.4134 65.9336 18.3994 65.9336 19.3896C65.9336 19.415 65.9336 19.4362 65.9336 19.4531C65.9336 19.9186 65.7728 20.3249 65.4512 20.6719C65.138 21.0104 64.7487 21.1797 64.2832 21.1797C63.8177 21.1797 63.4284 21.0189 63.1152 20.6973C62.7936 20.3672 62.6328 19.9821 62.6328 19.542C62.6328 19.5251 62.6328 19.5124 62.6328 19.5039C62.6328 19.0215 62.7936 18.6237 63.1152 18.3105C63.4284 18.0059 63.7923 17.8451 64.207 17.8281C64.1478 17.4811 63.7331 17.0833 62.9629 16.6348C62.582 16.4147 62.0869 16.3047 61.4775 16.3047C61.376 16.3047 61.2744 16.3089 61.1729 16.3174C60.2503 16.3936 59.4886 16.6432 58.8877 17.0664C58.8454 17.0918 58.7227 17.2018 58.5195 17.3965C58.401 17.5065 58.3418 17.79 58.3418 18.2471V27.1211L58.3672 27.2354C58.8242 28.1748 59.6198 28.763 60.7539 29H53.416ZM66.4414 29C67.4909 28.7969 68.2865 28.2044 68.8281 27.2227L68.8535 27.1211V12.3184C68.8535 12.1068 68.7985 11.9587 68.6885 11.874C68.5107 11.7301 68.2357 11.6243 67.8633 11.5566C66.9831 11.3789 66.5091 11.2858 66.4414 11.2773C66.5176 11.2435 67.8125 10.7611 70.3262 9.83008C70.5547 9.74544 70.9017 9.63542 71.3672 9.5V23.1094L76.5342 16.8252L76.6357 16.6855C76.6696 16.6263 76.6865 16.5544 76.6865 16.4697C76.6865 16.1396 75.9544 15.7588 74.4902 15.3271H80.4697C79.8688 15.5049 79.0944 16.0931 78.1465 17.0918L78.0576 17.2061L73.627 22.5254H75.5566L79.9365 27.3242L79.9746 27.375L80.0254 27.4258C81.0072 28.2467 81.8662 28.7715 82.6025 29H74.0332C75.8021 28.5684 76.6865 28.1071 76.6865 27.6162C76.6865 27.4893 76.6273 27.3623 76.5088 27.2354L76.3945 27.1211L72.9033 23.3887L71.3672 25.2295V27.1211L71.3926 27.2354C71.8496 28.1748 72.6452 28.763 73.7793 29H66.4414ZM82.8691 29C83.9186 28.7969 84.7142 28.2044 85.2559 27.2227L85.2812 27.1211V11.6963L85.2559 11.5947C84.7142 10.613 83.9186 10.0205 82.8691 9.81738H90.207C89.0729 10.0544 88.2773 10.6426 87.8203 11.582L87.7949 11.6963V27.7051H94.168L94.3457 27.6924C94.9466 27.6331 96.1188 26.7064 97.8623 24.9121L95.501 29H82.8691ZM97.3672 16.7871C97.9766 16.5163 99.2715 16.0339 101.252 15.3398C101.565 15.2298 101.912 15.1198 102.293 15.0098V27.1211L102.318 27.2354C102.775 28.1748 103.571 28.763 104.705 29H97.3672C98.4167 28.7969 99.2122 28.2044 99.7539 27.2227L99.7793 27.1211V17.8281C99.7793 17.6165 99.7243 17.4684 99.6143 17.3838C99.4365 17.2399 99.153 17.1299 98.7637 17.0537C97.9342 16.876 97.4688 16.7871 97.3672 16.7871ZM99.8682 12.3691C99.5465 12.0391 99.3857 11.6413 99.3857 11.1758C99.3857 10.7103 99.5465 10.3167 99.8682 9.99512C100.19 9.66504 100.579 9.5 101.036 9.5C101.493 9.5 101.882 9.66504 102.204 9.99512C102.526 10.3167 102.687 10.7103 102.687 11.1758C102.687 11.6413 102.526 12.0391 102.204 12.3691C101.882 12.6908 101.493 12.8516 101.036 12.8516C100.579 12.8516 100.19 12.6908 99.8682 12.3691ZM105.721 29C106.77 28.7969 107.566 28.2044 108.107 27.2227L108.133 27.1211V17.8281C108.133 17.6165 108.078 17.4684 107.968 17.3838C107.799 17.2484 107.54 17.1426 107.193 17.0664C106.423 16.8971 105.932 16.804 105.721 16.7871C106.008 16.6602 107.303 16.1777 109.605 15.3398C109.961 15.2129 110.308 15.1029 110.646 15.0098V15.9873L110.685 15.9619C111.531 15.3271 112.475 15.0098 113.516 15.0098C114.54 15.0098 115.483 15.3271 116.347 15.9619C117.201 16.5882 117.883 17.46 118.391 18.5771C118.898 19.6943 119.152 20.8919 119.152 22.1699V22.2461V26.499C119.152 26.7106 119.207 26.8587 119.317 26.9434C119.487 27.0788 119.745 27.1846 120.092 27.2607C120.862 27.43 121.353 27.5231 121.564 27.54C121.09 27.7516 119.796 28.234 117.68 28.9873C117.324 29.1143 116.977 29.2243 116.639 29.3174V22.2207V22.1699C116.639 20.2402 116.271 18.8099 115.534 17.8789C114.84 16.9987 114.007 16.5586 113.033 16.5586C113.016 16.5586 112.999 16.5586 112.982 16.5586C111.908 16.5586 111.129 16.9479 110.646 17.7266V27.1211L110.672 27.2354C111.129 28.1748 111.924 28.763 113.059 29H105.721ZM122.072 29C123.122 28.7969 123.917 28.2044 124.459 27.2227L124.484 27.1211V12.3184C124.484 12.1068 124.429 11.9587 124.319 11.874C124.142 11.7301 123.867 11.6243 123.494 11.5566C122.614 11.3789 122.14 11.2858 122.072 11.2773C122.148 11.2435 123.443 10.7611 125.957 9.83008C126.186 9.74544 126.533 9.63542 126.998 9.5V23.1094L132.165 16.8252L132.267 16.6855C132.3 16.6263 132.317 16.5544 132.317 16.4697C132.317 16.1396 131.585 15.7588 130.121 15.3271H136.101C135.5 15.5049 134.725 16.0931 133.777 17.0918L133.688 17.2061L129.258 22.5254H131.188L135.567 27.3242L135.605 27.375L135.656 27.4258C136.638 28.2467 137.497 28.7715 138.233 29H129.664C131.433 28.5684 132.317 28.1071 132.317 27.6162C132.317 27.4893 132.258 27.3623 132.14 27.2354L132.025 27.1211L128.534 23.3887L126.998 25.2295V27.1211L127.023 27.2354C127.48 28.1748 128.276 28.763 129.41 29H122.072Z"
      fill="white" />
    <line x1="149" y1="4.5" x2="6" y2="4.5" stroke="white" />
    <line x1="109" y1="35.5" x2="5" y2="35.5" stroke="white" />
    <line x1="149" y1="35.5" x2="135" y2="35.5" stroke="white" />
    <line x1="5.5" y1="36" x2="5.5" y2="4" stroke="white" />
    <line x1="148.5" y1="36" x2="148.5" y2="4" stroke="white" />
  </g>
  <defs>
    <clipPath id="clip0_829_51">
      <rect width="159" height="43" fill="white" />
    </clipPath>
  </defs>
</svg>
