<svg width="213" height="36" viewBox="0 0 213 36" fill="none" xmlns="http://www.w3.org/2000/svg">
  <g clip-path="url(#clip0_825_2)">
    <rect x="4" y="2" width="31" height="31" rx="9" fill="#2D5DF3" />
    <path
      d="M23.6666 26.25V24.4167C23.6666 23.4442 23.2803 22.5116 22.5926 21.8239C21.905 21.1363 20.9724 20.75 19.9999 20.75H14.4999C13.5275 20.75 12.5948 21.1363 11.9072 21.8239C11.2196 22.5116 10.8333 23.4442 10.8333 24.4167V26.25"
      stroke="white" stroke-width="2" stroke-linecap="round" stroke-linejoin="round" />
    <path
      d="M17.2499 17.0833C19.275 17.0833 20.9166 15.4417 20.9166 13.4167C20.9166 11.3916 19.275 9.75 17.2499 9.75C15.2249 9.75 13.5833 11.3916 13.5833 13.4167C13.5833 15.4417 15.2249 17.0833 17.2499 17.0833Z"
      stroke="white" stroke-width="2" stroke-linecap="round" stroke-linejoin="round" />
    <path
      d="M29.1667 26.25V24.4167C29.1661 23.6043 28.8957 22.815 28.398 22.173C27.9003 21.5309 27.2034 21.0723 26.4167 20.8692"
      stroke="white" stroke-width="2" stroke-linecap="round" stroke-linejoin="round" />
    <path
      d="M23.6667 9.86917C24.4555 10.0711 25.1545 10.5298 25.6538 11.173C26.153 11.8161 26.4239 12.6071 26.4239 13.4213C26.4239 14.2354 26.153 15.0264 25.6538 15.6696C25.1545 16.3127 24.4555 16.7714 23.6667 16.9733"
      stroke="white" stroke-width="2" stroke-linecap="round" stroke-linejoin="round" />
    <path
      d="M47.132 28V12.796H41.112V8.4H58.668V12.796H52.676V28H47.132ZM66.9022 28.252C65.1102 28.252 63.5422 27.916 62.1982 27.244C60.8729 26.5533 59.8369 25.62 59.0902 24.444C58.3622 23.2493 57.9982 21.896 57.9982 20.384C57.9982 18.872 58.3529 17.528 59.0622 16.352C59.7902 15.1573 60.7889 14.2333 62.0582 13.58C63.3275 12.908 64.7555 12.572 66.3422 12.572C67.8355 12.572 69.1982 12.88 70.4302 13.496C71.6622 14.0933 72.6422 14.98 73.3702 16.156C74.0982 17.332 74.4622 18.76 74.4622 20.44C74.4622 20.6267 74.4529 20.8413 74.4342 21.084C74.4155 21.3267 74.3969 21.5507 74.3782 21.756H62.3662V18.956H71.5502L69.5342 19.74C69.5529 19.0493 69.4222 18.452 69.1422 17.948C68.8809 17.444 68.5075 17.052 68.0222 16.772C67.5555 16.492 67.0049 16.352 66.3702 16.352C65.7355 16.352 65.1755 16.492 64.6902 16.772C64.2235 17.052 63.8595 17.4533 63.5982 17.976C63.3369 18.48 63.2062 19.0773 63.2062 19.768V20.58C63.2062 21.3267 63.3555 21.9707 63.6542 22.512C63.9715 23.0533 64.4195 23.4733 64.9982 23.772C65.5769 24.052 66.2675 24.192 67.0702 24.192C67.8169 24.192 68.4515 24.0893 68.9742 23.884C69.5155 23.66 70.0475 23.324 70.5702 22.876L73.3702 25.788C72.6422 26.5907 71.7462 27.2067 70.6822 27.636C69.6182 28.0467 68.3582 28.252 66.9022 28.252ZM85.7729 28V25.172L85.4089 24.472V19.264C85.4089 18.424 85.1475 17.78 84.6249 17.332C84.1209 16.8653 83.3089 16.632 82.1889 16.632C81.4609 16.632 80.7235 16.7533 79.9769 16.996C79.2302 17.22 78.5955 17.5373 78.0729 17.948L76.2809 14.336C77.1395 13.776 78.1662 13.3467 79.3609 13.048C80.5742 12.7307 81.7782 12.572 82.9729 12.572C85.4369 12.572 87.3409 13.1413 88.6849 14.28C90.0475 15.4 90.7289 17.164 90.7289 19.572V28H85.7729ZM81.2929 28.252C80.0795 28.252 79.0529 28.0467 78.2129 27.636C77.3729 27.2253 76.7289 26.6653 76.2809 25.956C75.8515 25.2467 75.6369 24.4533 75.6369 23.576C75.6369 22.6427 75.8702 21.84 76.3369 21.168C76.8222 20.4773 77.5595 19.9547 78.5489 19.6C79.5382 19.2267 80.8169 19.04 82.3849 19.04H85.9689V21.812H83.1129C82.2542 21.812 81.6475 21.952 81.2929 22.232C80.9569 22.512 80.7889 22.8853 80.7889 23.352C80.7889 23.8187 80.9662 24.192 81.3209 24.472C81.6755 24.752 82.1609 24.892 82.7769 24.892C83.3555 24.892 83.8782 24.752 84.3449 24.472C84.8302 24.1733 85.1849 23.7253 85.4089 23.128L86.1369 25.088C85.8569 26.1333 85.3062 26.9267 84.4849 27.468C83.6822 27.9907 82.6182 28.252 81.2929 28.252ZM113.855 12.572C115.031 12.572 116.076 12.8147 116.991 13.3C117.924 13.7667 118.652 14.4947 119.175 15.484C119.716 16.4733 119.987 17.752 119.987 19.32V28H114.667V20.188C114.667 19.1053 114.462 18.3213 114.051 17.836C113.64 17.332 113.08 17.08 112.371 17.08C111.867 17.08 111.41 17.2013 110.999 17.444C110.588 17.6867 110.271 18.06 110.047 18.564C109.823 19.0493 109.711 19.684 109.711 20.468V28H104.391V20.188C104.391 19.1053 104.186 18.3213 103.775 17.836C103.383 17.332 102.823 17.08 102.095 17.08C101.572 17.08 101.106 17.2013 100.695 17.444C100.303 17.6867 99.9856 18.06 99.7429 18.564C99.5189 19.0493 99.4069 19.684 99.4069 20.468V28H94.0869V12.824H99.1549V17.052L98.1469 15.848C98.7069 14.7653 99.4722 13.9533 100.443 13.412C101.414 12.852 102.496 12.572 103.691 12.572C105.054 12.572 106.248 12.9267 107.275 13.636C108.32 14.3267 109.02 15.4093 109.375 16.884L107.639 16.52C108.18 15.288 108.992 14.3267 110.075 13.636C111.176 12.9267 112.436 12.572 113.855 12.572ZM128.861 28.252C127.573 28.252 126.313 28.1027 125.081 27.804C123.867 27.5053 122.887 27.132 122.141 26.684L123.737 23.044C124.446 23.4733 125.277 23.8187 126.229 24.08C127.181 24.3227 128.114 24.444 129.029 24.444C129.925 24.444 130.541 24.3507 130.877 24.164C131.231 23.9773 131.409 23.7253 131.409 23.408C131.409 23.1093 131.241 22.8947 130.905 22.764C130.587 22.6147 130.158 22.5027 129.617 22.428C129.094 22.3533 128.515 22.2693 127.881 22.176C127.246 22.0827 126.602 21.9613 125.949 21.812C125.314 21.644 124.726 21.4013 124.185 21.084C123.662 20.748 123.242 20.3 122.925 19.74C122.607 19.18 122.449 18.4707 122.449 17.612C122.449 16.6413 122.729 15.7827 123.289 15.036C123.867 14.2707 124.707 13.6733 125.809 13.244C126.91 12.796 128.254 12.572 129.841 12.572C130.905 12.572 131.978 12.684 133.061 12.908C134.162 13.1133 135.086 13.4307 135.833 13.86L134.237 17.472C133.49 17.0427 132.743 16.7533 131.997 16.604C131.25 16.436 130.541 16.352 129.869 16.352C128.973 16.352 128.338 16.4547 127.965 16.66C127.61 16.8653 127.433 17.1173 127.433 17.416C127.433 17.7147 127.591 17.948 127.909 18.116C128.226 18.2653 128.646 18.3867 129.169 18.48C129.71 18.5547 130.298 18.6387 130.933 18.732C131.567 18.8067 132.202 18.928 132.837 19.096C133.49 19.264 134.078 19.516 134.601 19.852C135.142 20.1693 135.571 20.608 135.889 21.168C136.206 21.7093 136.365 22.4093 136.365 23.268C136.365 24.2013 136.075 25.0413 135.497 25.788C134.937 26.5347 134.097 27.132 132.977 27.58C131.875 28.028 130.503 28.252 128.861 28.252ZM148.205 28.252C146.917 28.252 145.816 27.972 144.901 27.412C143.987 26.8333 143.287 25.9747 142.801 24.836C142.335 23.6787 142.101 22.204 142.101 20.412C142.101 18.6013 142.325 17.1267 142.773 15.988C143.221 14.8307 143.893 13.972 144.789 13.412C145.704 12.852 146.843 12.572 148.205 12.572C149.587 12.572 150.837 12.8987 151.957 13.552C153.096 14.1867 153.992 15.092 154.645 16.268C155.317 17.4253 155.653 18.8067 155.653 20.412C155.653 22.0173 155.317 23.408 154.645 24.584C153.992 25.76 153.096 26.6653 151.957 27.3C150.837 27.9347 149.587 28.252 148.205 28.252ZM138.657 33.432V12.824H143.725V15.4L143.697 20.412L143.977 25.452V33.432H138.657ZM147.085 24.024C147.683 24.024 148.215 23.884 148.681 23.604C149.167 23.324 149.549 22.9133 149.829 22.372C150.128 21.8307 150.277 21.1773 150.277 20.412C150.277 19.6467 150.128 18.9933 149.829 18.452C149.549 17.9107 149.167 17.5 148.681 17.22C148.215 16.94 147.683 16.8 147.085 16.8C146.488 16.8 145.947 16.94 145.461 17.22C144.995 17.5 144.612 17.9107 144.313 18.452C144.033 18.9933 143.893 19.6467 143.893 20.412C143.893 21.1773 144.033 21.8307 144.313 22.372C144.612 22.9133 144.995 23.324 145.461 23.604C145.947 23.884 146.488 24.024 147.085 24.024ZM167.066 28V25.172L166.702 24.472V19.264C166.702 18.424 166.441 17.78 165.918 17.332C165.414 16.8653 164.602 16.632 163.482 16.632C162.754 16.632 162.017 16.7533 161.27 16.996C160.523 17.22 159.889 17.5373 159.366 17.948L157.574 14.336C158.433 13.776 159.459 13.3467 160.654 13.048C161.867 12.7307 163.071 12.572 164.266 12.572C166.73 12.572 168.634 13.1413 169.978 14.28C171.341 15.4 172.022 17.164 172.022 19.572V28H167.066ZM162.586 28.252C161.373 28.252 160.346 28.0467 159.506 27.636C158.666 27.2253 158.022 26.6653 157.574 25.956C157.145 25.2467 156.93 24.4533 156.93 23.576C156.93 22.6427 157.163 21.84 157.63 21.168C158.115 20.4773 158.853 19.9547 159.842 19.6C160.831 19.2267 162.11 19.04 163.678 19.04H167.262V21.812H164.406C163.547 21.812 162.941 21.952 162.586 22.232C162.25 22.512 162.082 22.8853 162.082 23.352C162.082 23.8187 162.259 24.192 162.614 24.472C162.969 24.752 163.454 24.892 164.07 24.892C164.649 24.892 165.171 24.752 165.638 24.472C166.123 24.1733 166.478 23.7253 166.702 23.128L167.43 25.088C167.15 26.1333 166.599 26.9267 165.778 27.468C164.975 27.9907 163.911 28.252 162.586 28.252ZM183.327 28.252C181.647 28.252 180.145 27.916 178.819 27.244C177.513 26.572 176.486 25.648 175.739 24.472C174.993 23.2773 174.619 21.9147 174.619 20.384C174.619 18.8533 174.993 17.5 175.739 16.324C176.486 15.148 177.513 14.2333 178.819 13.58C180.145 12.908 181.647 12.572 183.327 12.572C185.045 12.572 186.529 12.936 187.779 13.664C189.03 14.392 189.917 15.4187 190.439 16.744L186.323 18.844C185.969 18.1347 185.53 17.6213 185.007 17.304C184.485 16.968 183.915 16.8 183.299 16.8C182.683 16.8 182.123 16.94 181.619 17.22C181.115 17.5 180.714 17.9107 180.415 18.452C180.135 18.9747 179.995 19.6187 179.995 20.384C179.995 21.168 180.135 21.8307 180.415 22.372C180.714 22.9133 181.115 23.324 181.619 23.604C182.123 23.884 182.683 24.024 183.299 24.024C183.915 24.024 184.485 23.8653 185.007 23.548C185.53 23.212 185.969 22.6893 186.323 21.98L190.439 24.08C189.917 25.4053 189.03 26.432 187.779 27.16C186.529 27.888 185.045 28.252 183.327 28.252ZM200.23 28.252C198.438 28.252 196.87 27.916 195.526 27.244C194.201 26.5533 193.165 25.62 192.418 24.444C191.69 23.2493 191.326 21.896 191.326 20.384C191.326 18.872 191.681 17.528 192.39 16.352C193.118 15.1573 194.117 14.2333 195.386 13.58C196.656 12.908 198.084 12.572 199.67 12.572C201.164 12.572 202.526 12.88 203.758 13.496C204.99 14.0933 205.97 14.98 206.698 16.156C207.426 17.332 207.79 18.76 207.79 20.44C207.79 20.6267 207.781 20.8413 207.762 21.084C207.744 21.3267 207.725 21.5507 207.706 21.756H195.694V18.956H204.878L202.862 19.74C202.881 19.0493 202.75 18.452 202.47 17.948C202.209 17.444 201.836 17.052 201.35 16.772C200.884 16.492 200.333 16.352 199.698 16.352C199.064 16.352 198.504 16.492 198.018 16.772C197.552 17.052 197.188 17.4533 196.926 17.976C196.665 18.48 196.534 19.0773 196.534 19.768V20.58C196.534 21.3267 196.684 21.9707 196.982 22.512C197.3 23.0533 197.748 23.4733 198.326 23.772C198.905 24.052 199.596 24.192 200.398 24.192C201.145 24.192 201.78 24.0893 202.302 23.884C202.844 23.66 203.376 23.324 203.898 22.876L206.698 25.788C205.97 26.5907 205.074 27.2067 204.01 27.636C202.946 28.0467 201.686 28.252 200.23 28.252Z"
      fill="white" />
  </g>
  <defs>
    <clipPath id="clip0_825_2">
      <rect width="213" height="36" fill="white" />
    </clipPath>
  </defs>
</svg>
